<svg class="cc3ji cdiok cn59r" viewBox="0 0 64 64" xmlns="http://www.w3.org/2000/svg" xmlns:xlink="http://www.w3.org/1999/xlink">
                                    <defs>
                                        <filter x="-58.3%" y="-17.9%" width="216.7%" height="150%" filterUnits="objectBoundingBox" id="fb3-a">
                                            <feOffset dy="1" in="SourceAlpha" result="shadowOffsetOuter1"/>
                                            <feGaussianBlur stdDeviation="1" in="shadowOffsetOuter1" result="shadowBlurOuter1"/>
                                            <feComposite in="shadowBlurOuter1" in2="SourceAlpha" operator="out" result="shadowBlurOuter1"/>
                                            <feColorMatrix values="0 0 0 0 0.062745098 0 0 0 0 0.11372549 0 0 0 0 0.176470588 0 0 0 0.12 0" in="shadowBlurOuter1"/>
                                        </filter>
                                        <filter x="-19.4%" y="-10.9%" width="138.9%" height="130.4%" filterUnits="objectBoundingBox" id="fb3-c">
                                            <feOffset dy="1" in="SourceAlpha" result="shadowOffsetOuter1"/>
                                            <feGaussianBlur stdDeviation="1" in="shadowOffsetOuter1" result="shadowBlurOuter1"/>
                                            <feColorMatrix values="0 0 0 0 0.062745098 0 0 0 0 0.11372549 0 0 0 0 0.176470588 0 0 0 0.12 0" in="shadowBlurOuter1"/>
                                        </filter>
                                        <path d="M27 29h-4a1 1 0 00-1 1v12a1 1 0 001 1h5V30a1 1 0 00-1-1z" id="fb3-b"/>
                                        <path d="M43.882 28.133A2.986 2.986 0 0043 28h-6v-3c0-3.824-2.589-4.942-3.958-5A1 1 0 0032 21v4.638l-4 4.8V43h12.23a2.985 2.985 0 002.87-2.118l2.769-9a3 3 0 00-1.987-3.749z" id="fb3-d"/>
                                        <linearGradient x1="50%" y1="0%" x2="50%" y2="100%" id="fb3-e">
                                            <stop stop-color="#FFF" offset="0%"/>
                                            <stop stop-color="#E2EEFF" offset="100%"/>
                                        </linearGradient>
                                    </defs>
                                    <rect class="ckuoi c6urr" width="64" height="64" rx="32"/>
                                    <use fill="#000" filter="url(#fb3-a)" xlink:href="#fb3-b"/>
                                    <use fill-opacity=".64" fill="#E2EEFF" xlink:href="#fb3-b"/>
                                    <use fill="#000" filter="url(#fb3-c)" xlink:href="#fb3-d"/>
                                    <use fill="url(#fb3-e)" xlink:href="#fb3-d"/>
                                </svg>