<svg class="ckuoi c6urr c3r53 cb6q3 cpb3u cmvs9 cua0z" viewBox="0 0 16 16" xmlns="http://www.w3.org/2000/svg">
                                            <path d="M15.686 5.71 10.291.3c-.4-.4-.999-.4-1.399 0a.97.97 0 0 0 0 1.403l.6.6L2.698 6.01l-1-1.002c-.4-.4-.999-.4-1.398 0a.97.97 0 0 0 0 1.403l1.498 1.502 2.398 2.404L.6 14.023 2 15.425l3.696-3.706 3.997 4.007c.5.5 1.199.2 1.398 0a.97.97 0 0 0 0-1.402l-.999-1.002 3.697-6.711.6.6c.599.602 1.199.201 1.398 0 .3-.4.3-1.1-.1-1.502Zm-7.193 6.11L4.196 7.511l6.695-3.706 1.298 1.302-3.696 6.711Z"/>
                                        </svg>