<svg class="cc3ji cdiok cn59r" viewBox="0 0 64 64" xmlns="http://www.w3.org/2000/svg" xmlns:xlink="http://www.w3.org/1999/xlink">
                                    <defs>
                                        <filter x="-12.1%" y="-13.2%" width="124.1%" height="136.8%" filterUnits="objectBoundingBox" id="fb2-a">
                                            <feOffset dy="1" in="SourceAlpha" result="shadowOffsetOuter1"/>
                                            <feGaussianBlur stdDeviation="1" in="shadowOffsetOuter1" result="shadowBlurOuter1"/>
                                            <feComposite in="shadowBlurOuter1" in2="SourceAlpha" operator="out" result="shadowBlurOuter1"/>
                                            <feColorMatrix values="0 0 0 0 0.062745098 0 0 0 0 0.11372549 0 0 0 0 0.176470588 0 0 0 0.12 0" in="shadowBlurOuter1"/>
                                        </filter>
                                        <filter x="-12.1%" y="-13.2%" width="124.1%" height="136.8%" filterUnits="objectBoundingBox" id="fb2-c">
                                            <feOffset dy="1" in="SourceAlpha" result="shadowOffsetOuter1"/>
                                            <feGaussianBlur stdDeviation="1" in="shadowOffsetOuter1" result="shadowBlurOuter1"/>
                                            <feColorMatrix values="0 0 0 0 0.062745098 0 0 0 0 0.11372549 0 0 0 0 0.176470588 0 0 0 0.12 0" in="shadowBlurOuter1"/>
                                        </filter>
                                        <path d="M46 23H19c-.552 0-1 .424-1 .947v17.106c0 .523.448.947 1 .947h27c.552 0 1-.424 1-.947V23.947c0-.523-.448-.947-1-.947z" id="fb2-b"/>
                                        <path d="M46 23H19c-.552 0-1 .424-1 .947v17.106c0 .523.448.947 1 .947h27c.552 0 1-.424 1-.947V23.947c0-.523-.448-.947-1-.947z" id="fb2-d"/>
                                        <linearGradient x1="50%" y1="0%" x2="50%" y2="100%" id="fb2-e">
                                            <stop stop-color="#FFF" offset="0%"/>
                                            <stop stop-color="#E2EEFF" offset="100%"/>
                                        </linearGradient>
                                    </defs>
                                    <rect class="ckuoi c6urr" width="64" height="64" rx="32"/>
                                    <g transform="rotate(25 32.5 32.5)">
                                        <use fill="#000" filter="url(#fb2-a)" xlink:href="#fb2-b"/>
                                        <use fill-opacity=".64" fill="#E2EEFF" xlink:href="#fb2-b"/>
                                    </g>
                                    <g>
                                        <use fill="#000" filter="url(#fb2-c)" xlink:href="#fb2-d"/>
                                        <use fill="url(#fb2-e)" xlink:href="#fb2-d"/>
                                    </g>
                                    <path d="M32.5 36a3.5 3.5 0 110-7 3.5 3.5 0 010 7z" fill-opacity=".64" fill="#5091EE"/>
                                </svg>